<svg xmlns="http://www.w3.org/2000/svg" viewBox="0 0 24.50134 32">
    <path class="CDEK-widget__pin_green1" fill="#52a72d" d="M12.5,0A12.32748,12.32748,0,0,0,2.8,19.9L12.5,32V0Z"
        transform="translate(-0.2 0.00003)"></path>
    <path class="CDEK-widget__pin_green2" fill="#76b729"
        d="M12.5,32l9.6-12.1a12.26828,12.26828,0,0,0,2.6-7.6A12.14339,12.14339,0,0,0,12.5,0V32Z"
        transform="translate(-0.2 0.00003)"></path>
    <g fill="#fff">
        <path class="CDEK-widget__pin_wight"
            d="M19.4,5.5a1.26754,1.26754,0,0,0-.9-0.4H6.5a1.22153,1.22153,0,0,0-.9.4,1.48929,1.48929,0,0,0-.4.9v9.2a1.22153,1.22153,0,0,0,.4.9,1.26754,1.26754,0,0,0,.9.4H18.6a1.22154,1.22154,0,0,0,.9-0.4,1.26754,1.26754,0,0,0,.4-0.9V6.4A2.62187,2.62187,0,0,0,19.4,5.5ZM18.8,15.6a0.19962,0.19962,0,0,1-.1.2,0.34914,0.34914,0,0,1-.2.1H6.5a0.19962,0.19962,0,0,1-.2-0.1,0.34914,0.34914,0,0,1-.1-0.2V11H18.8v4.6h0Zm0-7.5H6.2V6.4a0.19962,0.19962,0,0,1,.1-0.2,0.34914,0.34914,0,0,1,.2-0.1H18.6a0.19962,0.19962,0,0,1,.2.1,0.34914,0.34914,0,0,1,.1.2L18.8,8.1h0Z"
            transform="translate(-0.2 0.00003)"></path>
        <rect class="CDEK-widget__pin_wight" x="15" y="13.1" width="1.8" height="1.7"></rect>
    </g>
</svg>