<svg xmlns="http://www.w3.org/2000/svg" viewBox="0 0 24.50134 32">
    <path class="CDEK-widget__pin_green1" fill="#52a72d" d="M12.5,0A12.32748,12.32748,0,0,0,2.8,19.9L12.5,32V0Z"
        transform="translate(-0.2 0.00003)"></path>
    <path class="CDEK-widget__pin_green2" fill="#76b729"
        d="M12.5,32l9.6-12.1a12.26828,12.26828,0,0,0,2.6-7.6A12.14339,12.14339,0,0,0,12.5,0V32Z"
        transform="translate(-0.2 0.00003)"></path>
    <path class="CDEK-widget__pin_wight" fill="#fff"
        d="M21.2,12.6L12.9,8.2V7.6h0a2.4392,2.4392,0,0,0,2.2-2.2,2.21953,2.21953,0,0,0-2.2-2.2,2.17382,2.17382,0,0,0-2.2,1.9V5.2h0a0.4,0.4,0,1,0,.8,0h0a1.143,1.143,0,0,1,.3-0.7A1.60584,1.60584,0,0,1,12.9,4a1.36707,1.36707,0,0,1,1.4,1.4,0.90949,0.90949,0,0,1-.4.8,2.281,2.281,0,0,1-1.2.6L12.1,7V7.1h0v1L3.8,12.5A1.41075,1.41075,0,0,0,3,13.7,1.442,1.442,0,0,0,4.5,15H20.4a1.442,1.442,0,0,0,1.5-1.3A0.97336,0.97336,0,0,0,21.2,12.6Zm-0.7,1.7H4.6a0.682,0.682,0,0,1-.7-0.5,0.54993,0.54993,0,0,1,.3-0.5h0l8.3-4.4,8.3,4.4h0a0.54993,0.54993,0,0,1,.3.5C21.2,14,20.9,14.3,20.5,14.3Z"
        transform="translate(-0.2 0.00003)"></path>
</svg>