<svg xmlns="http://www.w3.org/2000/svg" viewBox="0 0 512 512" >
    <path class="CDEK-widget__pin_green2" fill="#76b729"
        d="M483.069 2.93A10.072 10.072 0 00476 0H36c-2.63 0-5.21 1.07-7.07 2.93S26 7.37 26 10v246c0 5.51 4.49 10 10 10s10-4.49 10-10V20h420v428h-20V50c0-5.523-4.478-10-10-10H76c-5.523 0-10 4.477-10 10v398H46V346c0-5.51-4.49-10-10-10s-10 4.49-10 10v156c0 5.523 4.477 10 10 10h40c5.523 0 10-4.477 10-10v-34h340v34c0 5.523 4.478 10 10 10h40c5.522 0 10-4.477 10-10V10c0-2.63-1.07-5.21-2.931-7.07zM426 244H326v-82h100zm-120 0H206v-82h100zm-120 0H86v-82h100zM86 264h100v82H86zm120 0h100v82H206zm120 0h100v82H326zm100-122H326V60h100zm-120 0H206V60h100zM86 60h100v82H86zM66 492H46v-24h20zm20-126h100v82H86zm120 0h100v82H206zm120 0h100v82H326zm140 126h-20v-24h20z">
    </path>
    <circle cx="36" cy="301" r="10"></circle>
    <circle cx="116" cy="407" r="10"></circle>
    <circle cx="236" cy="407" r="10"></circle>
    <circle cx="356" cy="407" r="10"></circle>
    <circle cx="116" cy="305" r="10"></circle>
    <circle cx="236" cy="305" r="10"></circle>
    <circle cx="356" cy="305" r="10"></circle>
    <circle cx="116" cy="203" r="10"></circle>
    <circle cx="236" cy="203" r="10"></circle>
    <circle cx="356" cy="203" r="10"></circle>
    <circle cx="116" cy="101" r="10"></circle>
    <circle cx="236" cy="101" r="10"></circle>
    <circle cx="356" cy="101" r="10"></circle>
</svg>